<svg width="240" height="64" viewBox="0 0 240 64" fill="none" xmlns="http://www.w3.org/2000/svg" role="img" aria-labelledby="title desc">
  <title id="title">Orquestracs Face ID</title>
  <desc id="desc">Marca do sistema Orquestracs Face ID com simbolo de reconhecimento facial.</desc>
  <rect width="240" height="64" rx="10" fill="#FFFFFF"/>
  <rect x="10" y="10" width="44" height="44" rx="9" fill="#DCEBE6"/>
  <rect x="17" y="17" width="30" height="30" rx="7" fill="#101923"/>
  <path d="M24 27V24.5C24 23.6716 24.6716 23 25.5 23H28" stroke="#7EE2C4" stroke-width="2.4" stroke-linecap="round"/>
  <path d="M36 23H38.5C39.3284 23 40 23.6716 40 24.5V27" stroke="#7EE2C4" stroke-width="2.4" stroke-linecap="round"/>
  <path d="M40 37V39.5C40 40.3284 39.3284 41 38.5 41H36" stroke="#7EE2C4" stroke-width="2.4" stroke-linecap="round"/>
  <path d="M28 41H25.5C24.6716 41 24 40.3284 24 39.5V37" stroke="#7EE2C4" stroke-width="2.4" stroke-linecap="round"/>
  <path d="M24.5 32C26.168 28.87 28.67 27.3 32 27.3C35.33 27.3 37.832 28.87 39.5 32C37.832 35.13 35.33 36.7 32 36.7C28.67 36.7 26.168 35.13 24.5 32Z" fill="#DCEBE6"/>
  <circle cx="32" cy="32" r="3.45" fill="#18594C"/>
  <text x="66" y="29" fill="#101923" font-family="Arial, Helvetica, sans-serif" font-size="17" font-weight="800" letter-spacing="0">Orquestracs</text>
  <text x="66" y="45" fill="#18594C" font-family="Arial, Helvetica, sans-serif" font-size="11" font-weight="700" letter-spacing="0">Face ID</text>
</svg>
